<?xml version="1.0" encoding="utf-8"?>
<!-- Generator: Adobe Illustrator 19.0.0, SVG Export Plug-In . SVG Version: 6.00 Build 0)  -->
<svg version="1.1" id="Layer_1" xmlns="http://www.w3.org/2000/svg" xmlns:xlink="http://www.w3.org/1999/xlink" x="0px" y="0px"
	 viewBox="-49 51 500 500" style="enable-background:new -49 51 500 500;" xml:space="preserve">
<style type="text/css">
	.st0{fill:#D7E8F4;}
	.st1{fill:#C6DAE5;}
	.st2{fill:#E4F0F4;}
	.st3{fill:#587BC9;}
	.st4{fill:#EBEBEB;}
	.st5{fill:#F0F0F0;}
	.st6{fill:#E0E0E0;}
	.st7{fill:#FAFAFA;}
	.st8{opacity:0.3;fill:#E0E0E0;enable-background:new    ;}
	.st9{opacity:0.1;enable-background:new    ;}
	.st10{fill:#F5F5F5;}
	.st11{fill:#6DC77A;}
	.st12{opacity:0.35;enable-background:new    ;}
	.st13{fill:#E4897B;}
	.st14{opacity:0.4;enable-background:new    ;}
	.st15{opacity:0.2;fill:#263238;enable-background:new    ;}
	.st16{fill:#263238;}
	.st17{opacity:0.2;enable-background:new    ;}
	.st18{fill:#DE5753;}
	.st19{opacity:0.5;fill:#FFFFFF;enable-background:new    ;}
	.st20{opacity:0.3;enable-background:new    ;}
	.st21{opacity:0.6;enable-background:new    ;}
	.st22{opacity:0.5;fill:#FAFAFA;enable-background:new    ;}
	.st23{opacity:0.4;fill:#FAFAFA;enable-background:new    ;}
	.st24{opacity:0.2;fill:#FAFAFA;enable-background:new    ;}
	.st25{opacity:0.35;}
	.st26{opacity:0.4;}
	.st27{fill:#2E353A;}
	.st28{opacity:0.7;}
	.st29{fill:#FFFFFF;}
	.st30{opacity:0.3;fill:#FAFAFA;enable-background:new    ;}
	.st31{opacity:0.1;fill:#E0E0E0;enable-background:new    ;}
</style>
<g>
	<g>
		<g>
			<polygon class="st0" points="111.4,161.7 79.1,147.1 79.1,108.2 111.4,122.8 			"/>
		</g>
		<g>
			<polygon class="st1" points="111.4,161.7 143.7,147.1 143.7,108.2 111.4,122.8 			"/>
		</g>
		<g>
			<polygon class="st2" points="79.1,108.2 111.4,122.8 143.7,108.2 111.4,94.9 			"/>
		</g>
	</g>
	<g>
		<g>
			<polygon class="st0" points="369.4,140 342.2,127.7 342.2,95.1 369.4,107.3 			"/>
		</g>
		<g>
			<polygon class="st1" points="369.4,140 396.5,127.7 396.5,95.1 369.4,107.3 			"/>
		</g>
		<g>
			<polygon class="st2" points="342.2,95.1 369.4,107.3 396.5,95.1 369.4,83.9 			"/>
		</g>
	</g>
	<g>
		<path class="st3" d="M205.1,171l-3.8-1.7l0.7-1.5l3.8,1.7L205.1,171z M198.4,167.9l-4.4-2l0.7-1.5l4.4,2L198.4,167.9z
			 M190.9,164.5l-4.4-2l0.7-1.5l4.4,2L190.9,164.5z M183.5,161.2l-4.4-2l0.7-1.5l4.4,2L183.5,161.2z M176.1,157.8l-4.4-2l0.7-1.5
			l4.4,2L176.1,157.8z M168.7,154.5l-4.4-2l0.7-1.5l4.4,2L168.7,154.5z M161.3,151.1l-4.4-2l0.7-1.5l4.4,2L161.3,151.1z
			 M153.9,147.8l-4.4-2l0.7-1.5l4.4,2L153.9,147.8z M146.5,144.4l-4.4-2l0.7-1.5l4.4,2L146.5,144.4z M139.1,141l-4.4-2l0.7-1.5
			l4.4,2L139.1,141z M131.6,137.7l-4.4-2l0.7-1.5l4.4,2L131.6,137.7z"/>
	</g>
	<g>
		<path class="st3" d="M45.9,171.1l-1-1.3l2-1.5l1,1.3L45.9,171.1z M50.6,167.7l-1-1.3l3.9-2.9l1,1.3L50.6,167.7z M57.1,162.8
			l-1-1.3l3.9-2.9l1,1.3L57.1,162.8z M63.6,158l-1-1.3l3.9-2.9l1,1.3L63.6,158z M70.2,153.1l-1-1.3l3.9-2.9l1,1.3L70.2,153.1z
			 M76.7,148.3l-1-1.3l3.9-2.9l1,1.3L76.7,148.3z M83.2,143.4l-1-1.3l3.9-2.9l1,1.3L83.2,143.4z M89.8,138.6l-1-1.3l3.9-2.9l1,1.3
			L89.8,138.6z"/>
	</g>
	<g>
		<g>
			<polygon class="st0" points="34.5,219 7.4,206.7 7.4,174 34.5,186.3 			"/>
		</g>
		<g>
			<polygon class="st1" points="34.5,219 61.7,206.7 61.7,174 34.5,186.3 			"/>
		</g>
		<g>
			<polygon class="st2" points="7.4,174 34.5,186.3 61.7,174 34.5,162.9 			"/>
		</g>
	</g>
	<g>
		<path class="st3" d="M203.8,178.6l-0.6-1.5l0.1-0.1l0.6,1.5L203.8,178.6z M207,177.3l-0.6-1.5l4.5-1.8l0.6,1.5L207,177.3z
			 M214.6,174.3l-0.6-1.5l4.5-1.8l0.6,1.5L214.6,174.3z M222.1,171.3l-0.6-1.5l4.5-1.8l0.6,1.5L222.1,171.3z M229.7,168.3l-0.6-1.5
			l4.5-1.8l0.6,1.5L229.7,168.3z M237.3,165.3l-0.6-1.5l4.5-1.8l0.6,1.5L237.3,165.3z M244.8,162.3l-0.6-1.5l4.5-1.8l0.6,1.5
			L244.8,162.3z M252.4,159.3l-0.6-1.5l4.5-1.8l0.6,1.5L252.4,159.3z M259.9,156.3l-0.6-1.5l4.5-1.8l0.6,1.5L259.9,156.3z
			 M267.5,153.3l-0.6-1.5l4.5-1.8l0.6,1.5L267.5,153.3z M275.1,150.3l-0.6-1.5l4.5-1.8l0.6,1.5L275.1,150.3z M282.6,147.3l-0.6-1.5
			l4.5-1.8l0.6,1.5L282.6,147.3z M290.2,144.3l-0.6-1.5l4.5-1.8l0.6,1.5L290.2,144.3z M297.8,141.3l-0.6-1.5l4.5-1.8l0.6,1.5
			L297.8,141.3z M305.3,138.3l-0.6-1.5l4.5-1.8l0.6,1.5L305.3,138.3z M312.9,135.3l-0.6-1.5l4.5-1.8l0.6,1.5L312.9,135.3z
			 M320.4,132.3l-0.6-1.5l4.5-1.8l0.6,1.5L320.4,132.3z M328,129.3l-0.6-1.5l4.5-1.8l0.6,1.5L328,129.3z M335.6,126.2l-0.6-1.5
			l4.5-1.8l0.6,1.5L335.6,126.2z M343.1,123.2l-0.6-1.5l4.5-1.8l0.6,1.5L343.1,123.2z M350.7,120.2l-0.6-1.5l4.5-1.8l0.6,1.5
			L350.7,120.2z"/>
	</g>
	<g>
		<g>
			<polygon class="st0" points="231.1,223.4 176,198.5 176,132.3 231.1,157.2 			"/>
		</g>
		<g>
			<polygon class="st1" points="231.1,223.4 286.1,198.5 286.1,132.3 231.1,157.2 			"/>
		</g>
		<g>
			<polygon class="st2" points="176,132.3 231.1,157.2 286.1,132.3 231.1,109.7 			"/>
		</g>
	</g>
	<g>
		<path class="st3" d="M322.1,207.2l-4.5-2l0.7-1.5l4.5,2L322.1,207.2z M314.7,203.8l-4.5-2l0.7-1.5l4.5,2L314.7,203.8z
			 M307.3,200.5l-4.5-2l0.7-1.5l4.5,2L307.3,200.5z M299.8,197.2l-4.5-2l0.7-1.5l4.5,2L299.8,197.2z M292.4,193.9l-4.5-2l0.7-1.5
			l4.5,2L292.4,193.9z M285,190.5l-4.5-2l0.7-1.5l4.5,2L285,190.5z M277.6,187.2l-4.5-2l0.7-1.5l4.5,2L277.6,187.2z M270.1,183.9
			l-4.5-2l0.7-1.5l4.5,2L270.1,183.9z M262.7,180.6l-4.5-2l0.7-1.5l4.5,2L262.7,180.6z"/>
	</g>
	<g>
		<path class="st3" d="M158.9,207.7l-0.9-1.4l4.1-2.7l0.9,1.4L158.9,207.7z M165.8,203.3l-0.9-1.4l4.1-2.7l0.9,1.4L165.8,203.3z
			 M172.6,198.9l-0.9-1.4l4.1-2.7l0.9,1.4L172.6,198.9z M179.4,194.4l-0.9-1.4l4.1-2.7l0.9,1.4L179.4,194.4z M186.2,190l-0.9-1.4
			l4.1-2.7l0.9,1.4L186.2,190z M193.1,185.6l-0.9-1.4l4.1-2.7l0.9,1.4L193.1,185.6z M199.9,181.2l-0.9-1.4l4.1-2.7l0.9,1.4
			L199.9,181.2z"/>
	</g>
	<g>
		<g>
			<polygon class="st0" points="140.1,277.6 102.5,260.6 102.5,215.3 140.1,232.3 			"/>
		</g>
		<g>
			<polygon class="st1" points="140.1,277.6 177.7,260.6 177.7,215.3 140.1,232.3 			"/>
		</g>
		<g>
			<polygon class="st2" points="102.5,215.3 140.1,232.3 177.7,215.3 140.1,199.9 			"/>
		</g>
	</g>
	<g>
		<g>
			<polygon class="st0" points="343.2,238.4 305.5,221.4 305.5,176.1 343.2,193.1 			"/>
		</g>
		<g>
			<polygon class="st1" points="343.2,238.4 380.8,221.4 380.8,176.1 343.2,193.1 			"/>
		</g>
		<g>
			<polygon class="st2" points="305.5,176.1 343.2,193.1 380.8,176.1 343.2,160.7 			"/>
		</g>
	</g>
</g>
<g>
	<g id="freepik--background-complete--inject-10">
		<rect x="-42.6" y="480.7" class="st4" width="500" height="0.3"/>
		<rect x="374.2" y="496.8" class="st4" width="33.1" height="0.3"/>
		<rect x="280" y="499.5" class="st4" width="8.7" height="0.3"/>
		<rect x="354" y="487.5" class="st4" width="19.2" height="0.3"/>
		<rect x="9.9" y="489.2" class="st4" width="43.2" height="0.3"/>
		<rect x="62" y="489.2" class="st4" width="6.3" height="0.3"/>
		<rect x="88.9" y="493.4" class="st4" width="93.7" height="0.3"/>
		<path class="st4" d="M194.4,436.1H1.4c-3.1,0-5.7-2.6-5.7-5.7V159c0-3.1,2.6-5.7,5.7-5.7h193.1c3.2,0,5.7,2.6,5.7,5.7c0,0,0,0,0,0
			v271.4C200.2,433.6,197.6,436.1,194.4,436.1z M1.4,153.5c-3,0-5.5,2.4-5.5,5.5v271.4c0,3,2.4,5.5,5.5,5.5h193.1
			c3,0,5.5-2.4,5.5-5.5V159c0-3-2.4-5.5-5.5-5.5H1.4z"/>
		<path class="st4" d="M410.8,436.1H217.7c-3.2,0-5.7-2.6-5.7-5.7V159c0-3.2,2.6-5.7,5.7-5.7h193.1c3.1,0,5.7,2.6,5.7,5.7v271.4
			C416.4,433.6,413.9,436.1,410.8,436.1z M217.7,153.5c-3,0-5.5,2.4-5.5,5.5v271.4c0,3,2.4,5.5,5.5,5.5h193.1c3,0,5.5-2.4,5.5-5.5
			V159c0-3-2.4-5.5-5.5-5.5H217.7z"/>
		<path class="st5" d="M275.6,473.1c-3.5,3.2-6.4,7.1-8.4,11.4c-3.3-13.9-12.9-23.9-12.9-23.9c4,8.1,6.3,16.9,6.9,25.9
			c-2-5.9-6.1-7.6-6.1-7.6c3.1,5.9,2,13.8,2,13.8h14.2C271.1,485.9,272.6,479.2,275.6,473.1z"/>
		<path class="st5" d="M393.6,495.3c0.5-6.8,2.2-13.5,5.3-19.6c-4.6,5.2-8,11.4-9.7,18.1c-1.5-3.3-3.7-6.2-6.4-8.6
			c2.3,4.6,3.4,9.7,3.3,14.9h10.7c0,0-0.9-6,1.5-10.5C398.2,489.5,395.1,490.8,393.6,495.3z"/>
		<path class="st5" d="M21.2,491.5c-0.4-6.4-2.1-12.7-5-18.5c4.4,4.9,7.6,10.7,9.2,17.1c1.4-3.1,3.5-5.9,6-8.2
			c-2.1,4.4-3.2,9.2-3.1,14H18.3c0,0,0.8-5.6-1.4-9.9C19,487.2,20.6,489.2,21.2,491.5z"/>
		<path class="st6" d="M252.3,435.6c-7.8-41.4-16.1-103.3-41.8-104.6c-38.9-2-33.8,61-55.4,59.8s-23.1-96.6-64.2-96
			c-38.5,0.5-54.7,125.4-56.6,140.9H252.3z"/>
		<rect x="219.9" y="380.8" class="st6" width="188" height="17.1"/>
		<rect x="235.7" y="370.9" class="st5" width="17.1" height="85.7"/>
		<rect x="271" y="370.9" class="st5" width="17.1" height="85.7"/>
		<rect x="306.3" y="370.9" class="st5" width="17.1" height="85.7"/>
		<rect x="341.5" y="370.9" class="st5" width="17.1" height="85.7"/>
		<rect x="376.8" y="370.9" class="st5" width="17.1" height="85.7"/>
		<path class="st7" d="M246.5,388.8c0-1.3-1-2.3-2.3-2.3s-2.3,1-2.3,2.3s1,2.3,2.3,2.3h0C245.5,391.1,246.5,390.1,246.5,388.8z"/>
		<path class="st7" d="M281.8,388.8c0-1.3-1-2.3-2.3-2.3c-1.3,0-2.3,1-2.3,2.3c0,1.3,1,2.3,2.3,2.3c0,0,0,0,0,0
			C280.8,391.1,281.8,390.1,281.8,388.8z"/>
		<path class="st7" d="M317.1,388.8c0-1.3-1-2.3-2.3-2.3s-2.3,1-2.3,2.3s1,2.3,2.3,2.3h0C316.1,391.1,317.1,390.1,317.1,388.8z"/>
		<path class="st7" d="M352.4,388.8c0-1.3-1-2.3-2.3-2.3s-2.3,1-2.3,2.3s1,2.3,2.3,2.3h0C351.3,391.1,352.4,390.1,352.4,388.8z"/>
		<path class="st7" d="M387.6,388.8c0-1.3-1-2.3-2.3-2.3s-2.3,1-2.3,2.3s1,2.3,2.3,2.3h0C386.6,391.1,387.6,390.1,387.6,388.8z"/>
		<rect x="6.6" y="380.8" class="st6" width="117.7" height="17.1"/>
		<rect x="219.9" y="380.8" class="st8" width="188" height="17.1"/>
		<rect x="6.6" y="380.8" class="st8" width="117.7" height="17.1"/>
		<rect x="22.4" y="370.9" class="st5" width="17.1" height="85.7"/>
		<rect x="57.7" y="370.9" class="st5" width="17.1" height="85.7"/>
		<rect x="93" y="370.9" class="st5" width="17.1" height="85.7"/>
		<path class="st7" d="M33.3,388.8c0-1.3-1-2.3-2.3-2.3s-2.3,1-2.3,2.3s1,2.3,2.3,2.3h0C32.2,391.1,33.3,390.1,33.3,388.8z"/>
		<path class="st7" d="M68.5,388.8c0-1.3-1-2.3-2.3-2.3s-2.3,1-2.3,2.3s1,2.3,2.3,2.3h0C67.5,391.1,68.5,390.1,68.5,388.8z"/>
		<path class="st7" d="M103.8,388.8c0-1.3-1-2.3-2.3-2.3s-2.3,1-2.3,2.3c0,1.3,1,2.3,2.3,2.3c0,0,0,0,0,0
			C102.8,391.1,103.8,390.1,103.8,388.8z"/>
		<path class="st5" d="M391.4,256.7c0.1-0.8,0.2-1.6,0.2-2.4c0-8.3-6.7-15.1-15-15.1c-0.9,0-1.7,0.1-2.6,0.2
			c-4.9-8.2-15.5-10.8-23.7-5.9c-3.8,2.3-6.5,5.9-7.7,10.1c-5.9-1.8-12.2,1.5-14.1,7.4c-0.3,1.1-0.5,2.2-0.5,3.3
			c0,0.8,0.1,1.6,0.3,2.4H391.4z"/>
		<circle class="st5" cx="104.4" cy="216.8" r="38"/>
		<circle class="st9" cx="104.4" cy="216.8" r="38"/>
		<path class="st5" d="M89.8,214.6c0.1-0.8,0.2-1.6,0.2-2.4c0-8.6-6.9-15.5-15.5-15.6c-0.8,0-1.7,0.1-2.5,0.2
			c-5-8.4-15.9-11.2-24.3-6.2c-3.9,2.3-6.8,6.1-8,10.5c-6.1-1.9-12.6,1.5-14.4,7.6c-0.6,1.9-0.7,3.9-0.3,5.9H89.8z"/>
		<path class="st5" d="M125.2,234.6c-0.8-4.7,2.4-9.1,7-9.9c0.5-0.1,1-0.1,1.5-0.1c0.5,0,0.9,0,1.4,0.1c2.8-4.7,8.8-6.2,13.5-3.5
			c2.2,1.3,3.8,3.4,4.5,5.9c3.4-1.1,7,0.8,8,4.2c0.2,0.6,0.3,1.3,0.3,1.9c0,0.5,0,0.9-0.1,1.4L125.2,234.6z"/>
		<path class="st5" d="M57.7,263.5c-4.9-1.9-14.3-3.8-18.8,5.3c0,0,5.1-4,13.8-3.1c-0.7,1.2-0.8,2.7-0.3,4l5.3-3h0.1
			c11.6-3.4,18.7,2.1,18.7,2.1C72,259.7,62.6,261.6,57.7,263.5z"/>
	</g>
	<g id="freepik--Shadow--inject-10">
		<ellipse id="freepik--path--inject-10" class="st10" cx="207.4" cy="520.3" rx="193.9" ry="11.3"/>
	</g>
	<g id="freepik--Character--inject-10">
		
			<ellipse transform="matrix(-0.1021 -0.9948 0.9948 -0.1021 144.5995 563.968)" class="st11" cx="326.8" cy="216.7" rx="6.6" ry="25.4"/>
		<path class="st12" d="M338.4,211.2c0.1,0,2.4,0.1,2,0.8s-2.3,0.5-2.3,0.5L338.4,211.2z"/>
		<path class="st12" d="M313.6,213.7c0,0-1.9,0.3-1.5,1.5c0.4,1.2,4.5,0.6,4.5,0.6l-1-1.6L313.6,213.7z"/>
		<path class="st13" d="M284.4,305.4l-14.3-13.6c0-1.7-0.6-3.4-1.8-4.7c-1.9-2-10.2-4.8-10.7-4.2s-1.3,8.7-0.4,9.5s9.3,4.2,9.3,4.2
			l11.1,14.6L284.4,305.4z"/>
		<path class="st11" d="M311.4,249.6l-5.5,3.1c-6.1,10.8-19.8,34.7-24,42c-0.6,1-1.9,1.4-2.9,0.8c-0.1-0.1-0.2-0.1-0.3-0.2l-3.4-2.7
			l-7.6,10.6c0,0,11.4,11.8,15.2,10.6c7.4-2.3,26.8-35.1,26.8-35.1L311.4,249.6z"/>
		<path class="st14" d="M301.6,268.1c0,0-7,22.9-6.8,33.8c3.9-5.5,7.8-11.7,10.6-16.3L301.6,268.1z"/>
		<polygon class="st13" points="306.5,507.1 298.2,508 293.6,465.2 306.5,463.9 		"/>
		<path class="st15" d="M294.1,470c3.2-0.1,8.5-0.4,12.4-0.6v-5.5l-12.9,1.3L294.1,470z"/>
		<polygon class="st13" points="348.1,506.5 340.1,506.5 333.9,460 346.4,458.4 		"/>
		<polygon class="st15" points="334.3,462.9 335.1,468.9 346.8,467.8 346.4,458.4 334.8,459.9 		"/>
		<path class="st11" d="M351.6,253.1c-2.4,8.7-4.1,17.6-5.1,26.6c-0.3,2.8-0.6,5.5-0.8,8.1c-0.3,3.3-0.5,6.5-0.7,9.6
			c-0.2,3.9-0.3,8.4-0.3,12.9c0,10.3,0.4,20.2,0.4,20.2c-8.2,2-32,0.7-45-0.3c-1.5-12.4-1.9-25-1.2-37.5c0.4-8.3,1.3-16.5,2.7-24.6
			c0.7-4.3,1.7-8.7,2.9-12.9c1-3.1,3.6-5.3,6.8-5.7c1.6-0.2,3.4-0.4,5.3-0.5c0.7,0,1.5-0.1,2.2-0.1c6.1,0.1,12.3,0.5,18.4,1.3
			c1.1,0.1,2.3,0.3,3.5,0.5C344.4,251.3,348,252.1,351.6,253.1z"/>
		<path class="st10" d="M313.7,213.7c0,0-1.9,9.8,4,14.1c5.9,4.3,5.9-16.5,5.9-16.5L313.7,213.7z"/>
		<path class="st16" d="M313.7,213.7c0,0-1.9,9.8,4,14.1c5.9,4.3,5.9-16.5,5.9-16.5L313.7,213.7z"/>
		<path class="st13" d="M337.3,250.2c-3.9,3.6-13.6,2.3-13.6,2.3s-6-1.6-4.8-3.5c3.5-0.6,5.3-2.2,6-4.4c0.4-1.3,0.5-2.7,0.4-4.1
			c-0.1-0.8-0.2-1.5-0.3-2.3l11.9-8.8C335.3,235.3,333.4,246,337.3,250.2z"/>
		<path class="st17" d="M334.1,235.1c-0.5,7.2-6.4,9.1-9.2,9.5c0.4-1.3,0.5-2.7,0.4-4.1L334.1,235.1z"/>
		<path class="st13" d="M334.9,236.7c-2.5,3.8-7.3,5.4-11.6,3.9c-2.7-0.9-5-2.7-6.4-5.2c-0.2-0.3-0.4-0.7-0.5-1.1
			c-2.9-6.8-3.8-18.7,3.4-23.2c5.2-3.2,11.9-1.6,15.1,3.6c0.9,1.4,1.4,3,1.6,4.7C337.3,227.3,338.2,232,334.9,236.7z"/>
		<path class="st16" d="M326.4,214.2c1.2-0.8,2.7-0.4,3.5,0.8c0.4,0.7,0.5,1.5,0.2,2.2c-0.8,3.1,1,13.4,4.5,9c0,0-0.1-1.3,1-1.1
			s1.6,6.9-0.1,10.3c0,0,2.8-3.3,3.8-10.5c0.9-7.2,0.4-12.9-1.6-14.9c-2-2-2.5,0.1-4-2.7s-13.3-3-19.6,4.2
			C313,212.8,312.3,221.3,326.4,214.2z"/>
		<path class="st16" d="M324.8,223.6c0.2,0.6-0.1,1.2-0.6,1.3c-0.4,0.1-0.9-0.4-1-1c-0.1-0.6,0.1-1.2,0.6-1.3
			C324.3,222.6,324.7,223,324.8,223.6z"/>
		<path class="st16" d="M317.6,224.9c0.2,0.6-0.1,1.2-0.6,1.3c-0.4,0.1-0.9-0.4-1-1c-0.1-0.6,0.1-1.2,0.6-1.3
			C317,223.8,317.4,224.3,317.6,224.9z"/>
		<path class="st18" d="M319.7,223.8c-0.4,2.1-1.2,4.1-2.1,6c1,0.5,2.3,1,3.4,0.6L319.7,223.8z"/>
		<path class="st12" d="M337.7,210c-1.5-1.4-2.1-0.7-2.9-1.3l-6.8,2c0.1,0,7.5-0.2,11.6,4.4C339.3,212.8,338.7,211,337.7,210z"/>
		<path class="st13" d="M341,225.3c-0.6,1.9-1.9,3.6-3.7,4.5c-2.4,1.3-4.1-0.7-4-3.2c0.2-2.3,1.6-5.7,4.2-5.9S341.7,222.9,341,225.3
			z"/>
		<polygon points="270,256.5 261.2,255.5 259.8,249.1 272.8,250.5 		"/>
		<path class="st16" d="M250.1,394.3H250c-0.9-0.1-1.6-0.9-1.5-1.9L265,244l3.5,0.4L252,392.8C251.9,393.7,251,394.4,250.1,394.3z"
			/>
		<path class="st11" d="M291.8,218.7c-2.8,4.4-4.8,9.2-6,14.2l-2.3,9.6c-0.4,1.9-2.1,3.1-4,3l0,0l-7.7-0.9c-3.7-0.4-3.1-3.4-3.1-3.4
			l0,0l6.2-25.9l-1,1.6c-2.8,4.4-4.8,9.2-6,14.2l-2.4,10.4c-0.3,0.8-1.2,2.4-4.3,2l-4.9-0.5h-0.1c-1.6-0.2-2.6-1.7-2.4-3.2
			c0-0.1,0-0.2,0.1-0.3l6.2-26l-1,1.6c-2.8,4.4-4.8,9.2-6,14.2l-3,12.8v0.2c-0.6,5.4,3.3,10.3,8.7,10.9l16.2,1.8
			c5.4,0.6,10.3-3.3,10.9-8.6l7-29.2L291.8,218.7z"/>
		<path class="st19" d="M291.8,218.7c-2.8,4.4-4.8,9.2-6,14.2l-2.3,9.6c-0.4,1.9-2.1,3.1-4,3l0,0l-7.7-0.9c-3.7-0.4-3.1-3.4-3.1-3.4
			l0,0l6.2-25.9l-1,1.6c-2.8,4.4-4.8,9.2-6,14.2l-2.4,10.4c-0.3,0.8-1.2,2.4-4.3,2l-4.9-0.5h-0.1c-1.6-0.2-2.6-1.7-2.4-3.2
			c0-0.1,0-0.2,0.1-0.3l6.2-26l-1,1.6c-2.8,4.4-4.8,9.2-6,14.2l-3,12.8v0.2c-0.6,5.4,3.3,10.3,8.7,10.9l16.2,1.8
			c5.4,0.6,10.3-3.3,10.9-8.6l7-29.2L291.8,218.7z"/>
		<path class="st11" d="M331.3,462.4l17.5-2.2c-0.9-15.3-1.8-32.2-2.4-43.5c-1.5-27.4-2.2-87.6-2.2-93.2h-42.9
			c-3.5,19.1-13.4,79.6-10.4,140.7l17.4-1c0.7-30.4,3.1-75.9,11.3-97.8c1.5,18.5,3.2,38.1,4.8,48.5
			C326.1,426.2,328.9,445.6,331.3,462.4z"/>
		<path class="st20" d="M331.3,462.4l17.5-2.2c-0.9-15.3-1.8-32.2-2.4-43.5c-1.3-22.8-1.9-68.1-2.2-86.1c0.3-0.1,0.6-0.1,0.9-0.2
			c0,0-0.4-9.9-0.4-20.2c0-4.5,0-9,0.3-12.9c0.2-3,0.4-6.3,0.7-9.6c0.2-2.6,0.5-5.3,0.8-8.1c1-9,2.8-17.9,5.1-26.6
			c-3.5-0.9-7-1.7-10.6-2.3c-6.5,7.3-10,26.4-10,26.4c-6.1,0.1-23.4-1.8-23.4-1.8c1.5-18.9,5.6-25,6.7-26.2c-1,0.1-2,0.2-3,0.3
			c-3.2,0.4-5.9,2.6-6.8,5.7c-1.2,4.2-2.2,8.5-2.9,12.9c-1.4,8.1-2.3,16.4-2.7,24.6c-0.7,12.4-0.3,24.9,1.2,37.3
			c-4.1,24-11.9,78.9-9.2,134.2l17.4-1c0.7-30.4,3.1-75.9,11.3-97.8c1.5,18.5,3.2,38.1,4.8,48.5
			C326.1,426.2,328.9,445.6,331.3,462.4z"/>
		<path class="st12" d="M345.7,402.1c-0.3-9.4-0.6-20.1-0.8-30.5l-5.9-3.4C339,368.2,340.2,396.9,345.7,402.1z"/>
		<polygon class="st11" points="290.5,467.3 310,465.9 309.8,460.5 289.6,461.6 		"/>
		<polygon class="st11" points="330.7,465.4 349.9,464.2 349.5,458.4 330.1,459.9 		"/>
		<path class="st16" d="M312.9,512.5l-2.7-8.7l-0.2-26.2l-17.9,1.1l3.4,26.3c-2.3,2.4-7.9,5.2-15.5,7.5c-1.7,0.5-0.8,4.6,3.4,4.3
			c4.2-0.3,13.3-1.4,16.4-1.7c4.9-0.4,7.8-0.4,11.7-0.7c0.1,0,0.2,0,0.3-0.1C312.7,514.1,313.1,513.2,312.9,512.5
			C312.9,512.5,312.9,512.5,312.9,512.5z"/>
		<polygon class="st16" points="290.3,477.5 311.2,476 311.2,482.9 291.1,483.8 		"/>
		<path class="st16" d="M354.5,513.2l-2.7-8.7l-0.2-26.2l-17.9,1.1l3.4,26.3c-2.3,2.4-7.9,5.2-15.5,7.5c-1.7,0.5-0.8,4.6,3.4,4.3
			c4.2-0.3,13.3-1.4,16.4-1.7c4.9-0.4,7.8-0.4,11.7-0.6c0.1,0,0.2,0,0.3-0.1C354.3,514.8,354.8,514,354.5,513.2
			C354.5,513.2,354.5,513.2,354.5,513.2z"/>
		<polygon class="st16" points="332,478.3 352.9,476.8 352.9,483.7 332.8,484.6 		"/>
		<path class="st11" d="M307.1,285l3.2,0.8c4.9,1.3,9.9,1.8,14.9,1.6l4.2-0.2l-2.8,12.3c-0.5,2.7-3,4.5-5.8,4.3L312,303
			c-2.8-0.3-4.9-2.6-4.9-5.4V285z"/>
		<path class="st17" d="M307.1,285l3.2,0.8c4.9,1.3,9.9,1.8,14.9,1.6l4.2-0.2l-2.8,12.3c-0.5,2.7-3,4.5-5.8,4.3L312,303
			c-2.8-0.3-4.9-2.6-4.9-5.4V285z"/>
		<path class="st16" d="M364.8,376.7l-1.8-0.4c0.5-2,0.7-4.1,0.7-6.2c0-9.5-4.6-17.3-10.2-17.3s-10.2,7.8-10.2,17.4h-1.9
			c0-10.6,5.4-19.2,12.1-19.2s12.1,8.6,12.1,19.2C365.5,372.3,365.3,374.5,364.8,376.7z"/>
		<path class="st4" d="M339,368.2l5.4,28c0,1.2,4.4,2.2,9.9,2.2s9.9-1,9.9-2.2l5.4-28H339z"/>
		<path class="st20" d="M339,368.2l5.4,28c0,1.2,4.4,2.2,9.9,2.2s9.9-1,9.9-2.2l5.4-28H339z"/>
		<ellipse class="st11" cx="354.3" cy="368.2" rx="15.3" ry="3.4"/>
		<ellipse class="st21" cx="354.3" cy="368.2" rx="15.3" ry="3.4"/>
		<ellipse class="st12" cx="354.3" cy="370" rx="12.7" ry="1.5"/>
		<circle class="st10" cx="363.8" cy="376" r="2.4"/>
		<path class="st14" d="M362,371.1c0.6,1.3,1,2.8,1.1,4.3l1.1-0.3l0.6-4.1v-0.4C363.9,370.8,363,370.9,362,371.1z"/>
		<path class="st16" d="M354.3,350.9v1.9c5.2,0.8,9.4,8.2,9.4,17.2c0,1.8-0.2,3.6-0.5,5.3c-0.1,0.5,0.2,1,0.7,1.1l0,0
			c0.5,0.1,1-0.2,1.1-0.7c0.4-1.9,0.5-3.8,0.5-5.7C365.5,359.9,360.5,351.6,354.3,350.9z"/>
		<path class="st13" d="M347.9,327.5L349,346c-1.1,1.2-1.8,2.8-1.8,4.4c0,2.6,3.9,9.8,4.7,9.7c0.8-0.1,6.5-5.1,6.3-6.2
			c-0.2-1.1-3.7-8.8-3.7-8.8l1.7-17.1L347.9,327.5z"/>
		<path class="st17" d="M319.5,365.3c-2.1,6-3.7,12.3-4.8,18.6c-1.2-16.4,3.6-33.8,3.6-33.8L319.5,365.3z"/>
		<path class="st16" d="M324.2,232.1c-1.2-0.5-2.6-0.3-3.6,0.6c0,0-0.1-0.1-0.1-0.1c-1.3-0.4-2.7,0-3.6,1c-1.9,2-2.5,0.9-2.5,0.9
			s1.3,3.4,4.7,1.2c0.3-0.2,0.5-0.4,0.8-0.5c0.6-0.5,1.4-0.6,2.2-0.4c0.4,0.1,0.7,0.1,1.1,0.1c3.2,0,4.1-3.2,4.1-3.2
			S326.8,233.1,324.2,232.1z"/>
		<path class="st11" d="M325.8,211.4c4.7-0.5,9.5-0.5,14.2,0c-1.2-6.8-6.2-10.7-13.3-10.7c-8,0-15.5,5.3-15.5,13.3
			c0,0.2,0,0.4,0,0.6C315.9,212.9,320.8,211.8,325.8,211.4z"/>
		<path class="st16" d="M331.9,215.9c-0.2,0.1-13.3,4-16.6,0.7c-3.3-3.3,11-3.6,11-3.6l4.2,0.3L331.9,215.9z"/>
		<path class="st11" d="M351.6,253.1c0,0,7.4-1,7.1,48.4c-0.2,33.1,0.9,32.9,0.9,32.9l-15.3,0.8
			C344.2,335.2,334.1,253.2,351.6,253.1z"/>
		<polygon class="st11" points="342,330.4 361,330.2 361.1,335.1 342.3,335.6 		"/>
		<polygon class="st22" points="342,330.4 361,330.2 361.1,335.1 342.3,335.6 		"/>
		<polygon class="st11" points="274.4,290 277.7,292.5 267.8,305.4 264.8,302.7 		"/>
		<polygon class="st22" points="274.4,290 277.7,292.5 267.8,305.4 264.8,302.7 		"/>
		<path class="st16" d="M322.4,221L322.4,221c-0.2,0-0.3-0.2-0.2-0.4c0,0,0,0,0,0c0.3-0.7,1-1.2,1.7-1.3c0.8-0.2,1.7,0.2,2.2,0.8
			c0.1,0.2,0,0.4-0.1,0.4c-0.2,0.1-0.4,0-0.5-0.1c-0.4-0.5-1-0.7-1.6-0.6c-0.5,0-1,0.4-1.2,0.9C322.8,221,322.6,221.1,322.4,221z"/>
		<path class="st16" d="M314,222.1L314,222.1c-0.3-0.1-0.4-0.2-0.3-0.4c0.3-0.7,1-1.2,1.7-1.3c0.8-0.2,1.7,0.2,2.2,0.9
			c0.1,0.1,0.1,0.3-0.1,0.4c0,0,0,0,0,0c-0.1,0.1-0.3,0.1-0.4-0.1c0,0,0,0,0,0c-0.4-0.5-1-0.7-1.6-0.5c-0.5,0-1,0.3-1.2,0.8
			C314.2,222,314.1,222.1,314,222.1z"/>
	</g>
	<g id="freepik--Wheelbarrow--inject-10">
		<path class="st11" d="M79.1,398.3c0,7.7-11.2,21.4-18.8,21.4s-9-13.7-9-21.4c0-7.7,6.2-13.9,13.9-13.9S79.1,390.6,79.1,398.3
			C79.1,398.3,79.1,398.3,79.1,398.3L79.1,398.3z"/>
		<path class="st23" d="M79.1,398.3c0,7.7-11.2,21.4-18.8,21.4s-9-13.7-9-21.4c0-7.7,6.2-13.9,13.9-13.9S79.1,390.6,79.1,398.3
			C79.1,398.3,79.1,398.3,79.1,398.3L79.1,398.3z"/>
		<path class="st11" d="M72.2,382c-2,1.1-3.4,3.1-3.8,5.4c3.7,1.7,8,0.1,9.8-3.5c0.3-0.6,0.5-1.3,0.6-2
			C76.7,380.8,74.2,380.9,72.2,382z"/>
		<path class="st24" d="M72.2,382c-2,1.1-3.4,3.1-3.8,5.4c3.7,1.7,8,0.1,9.8-3.5c0.3-0.6,0.5-1.3,0.6-2
			C76.7,380.8,74.2,380.9,72.2,382z"/>
		<path class="st11" d="M65,385.4c0.8,1.1,2,1.9,3.4,1.9c0.8-2.3-0.4-4.8-2.6-5.6c-0.4-0.1-0.8-0.2-1.2-0.2
			C64.1,382.8,64.3,384.3,65,385.4z"/>
		<path class="st24" d="M65,385.4c0.8,1.1,2,1.9,3.4,1.9c0.8-2.3-0.4-4.8-2.6-5.6c-0.4-0.1-0.8-0.2-1.2-0.2
			C64.1,382.8,64.3,384.3,65,385.4z"/>
		<path class="st11" d="M133,393c2.5,7.3-3.6,23.9-10.8,26.4c-7.3,2.5-13-10-15.5-17.3c-2.5-7.3,1.4-15.2,8.6-17.7
			S130.5,385.7,133,393L133,393z"/>
		<path class="st23" d="M133,393c2.5,7.3-3.6,23.9-10.8,26.4c-7.3,2.5-13-10-15.5-17.3c-2.5-7.3,1.4-15.2,8.6-17.7
			S130.5,385.7,133,393L133,393z"/>
		<path class="st11" d="M121.1,379.8c-1.6,1.7-2.2,4.1-1.8,6.3c4,0.4,7.7-2.5,8.1-6.5c0.1-0.7,0-1.4-0.1-2.1
			C125,377.3,122.7,378.1,121.1,379.8z"/>
		<path class="st24" d="M121.1,379.8c-1.6,1.7-2.2,4.1-1.8,6.3c4,0.4,7.7-2.5,8.1-6.5c0.1-0.7,0-1.4-0.1-2.1
			C125,377.3,122.7,378.1,121.1,379.8z"/>
		<path class="st11" d="M115.5,385.4c1.1,0.8,2.5,1.1,3.8,0.7c0-2.4-1.9-4.4-4.3-4.4c-0.4,0-0.8,0.1-1.2,0.2
			C113.8,383.3,114.4,384.6,115.5,385.4z"/>
		<path class="st24" d="M115.5,385.4c1.1,0.8,2.5,1.1,3.8,0.7c0-2.4-1.9-4.4-4.3-4.4c-0.4,0-0.8,0.1-1.2,0.2
			C113.8,383.3,114.4,384.6,115.5,385.4z"/>
		<path class="st11" d="M78.6,395.3c-0.8,9,10.8,26.2,19.8,27s11.9-15.1,12.8-24c0.8-9-5.8-16.9-14.8-17.7S79.4,386.3,78.6,395.3
			L78.6,395.3z"/>
		<path class="st22" d="M78.6,395.3c-0.8,9,10.8,26.2,19.8,27s11.9-15.1,12.8-24c0.8-9-5.8-16.9-14.8-17.7S79.4,386.3,78.6,395.3
			L78.6,395.3z"/>
		<path class="st11" d="M88.4,376.9c2.3,1.5,3.7,4,3.9,6.7c-4.5,1.6-9.4-0.7-11-5.2c-0.3-0.8-0.5-1.6-0.5-2.4
			C83.2,375.1,86.1,375.4,88.4,376.9z"/>
		<path class="st24" d="M88.4,376.9c2.3,1.5,3.7,4,3.9,6.7c-4.5,1.6-9.4-0.7-11-5.2c-0.3-0.8-0.5-1.6-0.5-2.4
			C83.2,375.1,86.1,375.4,88.4,376.9z"/>
		<path class="st11" d="M96.3,381.7c-1,1.2-2.6,2-4.2,1.9c-0.7-2.7,0.9-5.5,3.7-6.2c0.5-0.1,1-0.2,1.5-0.2
			C97.7,378.8,97.4,380.5,96.3,381.7z"/>
		<path class="st24" d="M96.3,381.7c-1,1.2-2.6,2-4.2,1.9c-0.7-2.7,0.9-5.5,3.7-6.2c0.5-0.1,1-0.2,1.5-0.2
			C97.7,378.8,97.4,380.5,96.3,381.7z"/>
		<path class="st11" d="M132.4,388.9c-2.8,8.6,4.5,27.9,13.1,30.8s15.1-11.9,17.9-20.5c2.8-8.6-1.8-17.8-10.4-20.6
			C144.5,375.7,135.3,380.3,132.4,388.9L132.4,388.9z"/>
		<path class="st22" d="M132.4,388.9c-2.8,8.6,4.5,27.9,13.1,30.8s15.1-11.9,17.9-20.5c2.8-8.6-1.8-17.8-10.4-20.6
			C144.5,375.7,135.3,380.3,132.4,388.9L132.4,388.9z"/>
		<path class="st11" d="M146.1,373.3c1.9,2,2.7,4.7,2.2,7.4c-4.7,0.6-9-2.8-9.6-7.5c-0.1-0.8-0.1-1.7,0.1-2.5
			C141.6,370.3,144.3,371.3,146.1,373.3z"/>
		<path class="st24" d="M146.1,373.3c1.9,2,2.7,4.7,2.2,7.4c-4.7,0.6-9-2.8-9.6-7.5c-0.1-0.8-0.1-1.7,0.1-2.5
			C141.6,370.3,144.3,371.3,146.1,373.3z"/>
		<path class="st11" d="M152.8,379.8c-1.3,1-2.9,1.3-4.5,0.9c0-2.8,2.2-5.1,5-5.2c0.5,0,1,0.1,1.4,0.2
			C154.8,377.3,154.1,378.8,152.8,379.8z"/>
		<path class="st24" d="M152.8,379.8c-1.3,1-2.9,1.3-4.5,0.9c0-2.8,2.2-5.1,5-5.2c0.5,0,1,0.1,1.4,0.2
			C154.8,377.3,154.1,378.8,152.8,379.8z"/>
		<path class="st11" d="M29.8,401.9h155.9c0,0,1.8,35.3-8.6,45c-8.8,8.3-76.6,15.8-103.3,18.9c-5,0.6-21.2-0.9-25.3-4.5
			C38.3,452.4,30.9,434.5,29.8,401.9z"/>
		<g class="st25">
			<path d="M48.5,461.4c4,3.6,20.3,5,25.3,4.5c5.8-0.7,13.4-1.5,22-2.6c25.5-3.9,48.7-8.6,53.9-13.5c9.6-9,10.2-37,10.1-47.9h-130
				C30.9,434.5,38.3,452.4,48.5,461.4z"/>
		</g>
		<rect x="26.7" y="398.6" class="st11" width="164.5" height="6.3"/>
		<g class="st26">
			<rect x="26.7" y="398.6" class="st7" width="164.5" height="6.3"/>
		</g>
		<circle class="st27" cx="69.2" cy="496.8" r="26.5"/>
		<g class="st25">
			<path d="M185,423.7l-8.1,11.4c-2.9,4-4,9-3,13.8l0,0c1.2-0.5,2.3-1.2,3.2-2C181.8,442.6,184,432.9,185,423.7z"/>
		</g>
		<path class="st5" d="M81.6,496.8c0-6.8-5.6-12.4-12.4-12.4s-12.4,5.6-12.4,12.4c0,6.8,5.6,12.4,12.4,12.4c0,0,0,0,0,0
			C76,509.2,81.6,503.7,81.6,496.8z"/>
		<path class="st16" d="M74.8,496.8c0-3.1-2.5-5.6-5.6-5.6s-5.6,2.5-5.6,5.6c0,3.1,2.5,5.6,5.6,5.6S74.8,499.9,74.8,496.8
			L74.8,496.8z"/>
		<path class="st11" d="M182.7,519.5c-6.8,0-12.7-4.7-14.3-11.3l-11.2-51.1l-67.6,10.5l-17.3,31c-1,1.7-3.2,2.4-4.9,1.4
			c-1.7-1-2.4-3.2-1.4-4.9l18.2-32.5c0.5-1,1.5-1.6,2.6-1.8l72.7-11.3c1.9-0.3,3.7,0.9,4.1,2.8l11.9,54.4c0.9,3.9,4.9,6.4,8.8,5.4
			c0.2,0,0.3-0.1,0.5-0.1c3.6-1.1,5.8-4.8,5-8.5L177.4,442c-0.2-0.8-0.1-1.6,0.3-2.3l15.5-32.6c0.5-1,1.4-1.8,2.5-2l59.5-12.3
			c2-0.3,3.8,1.1,4.1,3c0.3,1.8-0.9,3.6-2.7,4.1l-57.7,11.9l-14.2,29.9l12.2,60.1c1.7,7.9-3.4,15.6-11.2,17.3
			C184.7,519.4,183.7,519.5,182.7,519.5L182.7,519.5z"/>
		<g class="st28">
			<path class="st29" d="M182.7,519.5c-6.8,0-12.7-4.7-14.3-11.3l-11.2-51.1l-67.6,10.5l-17.3,31c-1,1.7-3.2,2.4-4.9,1.4
				c-1.7-1-2.4-3.2-1.4-4.9l18.2-32.5c0.5-1,1.5-1.6,2.6-1.8l72.7-11.3c1.9-0.3,3.7,0.9,4.1,2.8l11.9,54.4c0.9,3.9,4.9,6.4,8.8,5.4
				c0.2,0,0.3-0.1,0.5-0.1c3.6-1.1,5.8-4.8,5-8.5L177.4,442c-0.2-0.8-0.1-1.6,0.3-2.3l15.5-32.6c0.5-1,1.4-1.8,2.5-2l59.5-12.3
				c2-0.3,3.8,1.1,4.1,3c0.3,1.8-0.9,3.6-2.7,4.1l-57.7,11.9l-14.2,29.9l12.2,60.1c1.7,7.9-3.4,15.6-11.2,17.3
				C184.7,519.4,183.7,519.5,182.7,519.5L182.7,519.5z"/>
		</g>
		<path class="st11" d="M236.6,393.8l27.2-5.5c3.5-0.6,6.7,1.7,7.3,5.2c0.6,3.3-1.5,6.5-4.8,7.2l-27.2,5.5
			C238.7,406.3,236.6,393.8,236.6,393.8z"/>
	</g>
	<g id="freepik--Box--inject-10">
		<path class="st11" d="M214.8,476.2c0,4.9-7.1,13.5-11.9,13.5s-5.7-8.7-5.7-13.5c0-4.9,4-8.8,8.8-8.8
			C210.9,467.4,214.8,471.4,214.8,476.2z"/>
		<path class="st22" d="M214.8,476.2c0,4.9-7.1,13.5-11.9,13.5s-5.7-8.7-5.7-13.5c0-4.9,4-8.8,8.8-8.8
			C210.9,467.4,214.8,471.4,214.8,476.2z"/>
		<path class="st11" d="M210.4,465.9c-1.3,0.7-2.2,2-2.4,3.4c2.3,1.1,5.1,0.1,6.2-2.3c0.2-0.4,0.3-0.8,0.4-1.3
			C213.3,465.2,211.7,465.2,210.4,465.9z"/>
		<path class="st24" d="M210.4,465.9c-1.3,0.7-2.2,2-2.4,3.4c2.3,1.1,5.1,0.1,6.2-2.3c0.2-0.4,0.3-0.8,0.4-1.3
			C213.3,465.2,211.7,465.2,210.4,465.9z"/>
		<path class="st11" d="M205.9,468.1c0.5,0.7,1.3,1.2,2.1,1.2c0.5-1.4-0.2-3-1.7-3.5c-0.3-0.1-0.5-0.1-0.8-0.2
			C205.3,466.4,205.4,467.4,205.9,468.1z"/>
		<path class="st24" d="M205.9,468.1c0.5,0.7,1.3,1.2,2.1,1.2c0.5-1.4-0.2-3-1.7-3.5c-0.3-0.1-0.5-0.1-0.8-0.2
			C205.3,466.4,205.4,467.4,205.9,468.1z"/>
		<path class="st11" d="M248.9,472.9c1.6,4.6-2.3,15.1-6.9,16.7s-8.2-6.4-9.8-11c-1.7-4.6,0.7-9.6,5.3-11.3
			c4.6-1.7,9.6,0.7,11.3,5.3C248.9,472.7,248.9,472.8,248.9,472.9L248.9,472.9z"/>
		<path class="st23" d="M248.9,472.9c1.6,4.6-2.3,15.1-6.9,16.7s-8.2-6.4-9.8-11c-1.7-4.6,0.7-9.6,5.3-11.3
			c4.6-1.7,9.6,0.7,11.3,5.3C248.9,472.7,248.9,472.8,248.9,472.9L248.9,472.9z"/>
		<path class="st11" d="M241.4,464.6c-1,1.1-1.4,2.6-1.1,4c2.6,0.3,4.8-1.6,5.1-4.1c0-0.4,0-0.9-0.1-1.3
			C243.9,462.9,242.4,463.5,241.4,464.6z"/>
		<path class="st24" d="M241.4,464.6c-1,1.1-1.4,2.6-1.1,4c2.6,0.3,4.8-1.6,5.1-4.1c0-0.4,0-0.9-0.1-1.3
			C243.9,462.9,242.4,463.5,241.4,464.6z"/>
		<path class="st11" d="M237.9,468.1c0.8,0,1.4-0.6,1.4-1.4c0-0.8-0.6-1.4-1.4-1.4c-0.4,0-0.8,0.2-1.1,0.5
			C236.8,466.7,237.2,467.6,237.9,468.1z"/>
		<path class="st24" d="M237.9,468.1c0.8,0,1.4-0.6,1.4-1.4c0-0.8-0.6-1.4-1.4-1.4c-0.4,0-0.8,0.2-1.1,0.5
			C236.8,466.7,237.2,467.6,237.9,468.1z"/>
		<path class="st11" d="M214.5,474.3c-0.5,5.7,6.8,16.6,12.5,17.1s7.6-9.5,8.1-15.2c0.7-5.7-3.4-10.8-9.1-11.5
			c-5.7-0.7-10.8,3.4-11.5,9.1C214.5,474,214.5,474.2,214.5,474.3z"/>
		<path class="st22" d="M214.5,474.3c-0.5,5.7,6.8,16.6,12.5,17.1s7.6-9.5,8.1-15.2c0.7-5.7-3.4-10.8-9.1-11.5
			c-5.7-0.7-10.8,3.4-11.5,9.1C214.5,474,214.5,474.2,214.5,474.3z"/>
		<path class="st11" d="M220.7,462.7c1.4,0.9,2.3,2.5,2.4,4.2c-2.8,1-6-0.4-7-3.3c-0.2-0.5-0.3-1-0.3-1.5
			C217.4,461.6,219.2,461.8,220.7,462.7z"/>
		<path class="st24" d="M220.7,462.7c1.4,0.9,2.3,2.5,2.4,4.2c-2.8,1-6-0.4-7-3.3c-0.2-0.5-0.3-1-0.3-1.5
			C217.4,461.6,219.2,461.8,220.7,462.7z"/>
		<path class="st11" d="M225.7,465.8c-0.6,0.8-1.6,1.2-2.6,1.2c-0.4-1.7,0.6-3.5,2.4-3.9c0.3-0.1,0.6-0.1,0.9-0.1
			C226.6,463.9,226.4,465,225.7,465.8z"/>
		<path class="st24" d="M225.7,465.8c-0.6,0.8-1.6,1.2-2.6,1.2c-0.4-1.7,0.6-3.5,2.4-3.9c0.3-0.1,0.6-0.1,0.9-0.1
			C226.6,463.9,226.4,465,225.7,465.8z"/>
		<path class="st11" d="M248.6,470.3c-1.8,5.4,2.9,17.7,8.3,19.5s9.5-7.6,11.4-13c2-5.4-0.8-11.3-6.2-13.2c-5.4-2-11.3,0.8-13.2,6.2
			C248.7,469.9,248.6,470.1,248.6,470.3L248.6,470.3z"/>
		<path class="st22" d="M248.6,470.3c-1.8,5.4,2.9,17.7,8.3,19.5s9.5-7.6,11.4-13c2-5.4-0.8-11.3-6.2-13.2c-5.4-2-11.3,0.8-13.2,6.2
			C248.7,469.9,248.6,470.1,248.6,470.3L248.6,470.3z"/>
		<path class="st11" d="M257.3,460.4c1.2,1.3,1.7,3,1.4,4.7c-3,0.3-5.7-1.8-6-4.8c-0.1-0.5,0-1.1,0-1.6
			C254.4,458.6,256.1,459.2,257.3,460.4z"/>
		<path class="st24" d="M257.3,460.4c1.2,1.3,1.7,3,1.4,4.7c-3,0.3-5.7-1.8-6-4.8c-0.1-0.5,0-1.1,0-1.6
			C254.4,458.6,256.1,459.2,257.3,460.4z"/>
		<path class="st11" d="M261.4,464.5c-0.9,0-1.6-0.7-1.6-1.6c0-0.9,0.7-1.6,1.6-1.6c0.5,0,1,0.2,1.3,0.6
			C262.7,462.9,262.2,463.9,261.4,464.5z"/>
		<path class="st24" d="M261.4,464.5c-0.9,0-1.6-0.7-1.6-1.6c0-0.9,0.7-1.6,1.6-1.6c0.5,0,1,0.2,1.3,0.6
			C262.7,462.9,262.2,463.9,261.4,464.5z"/>
		<polygon class="st11" points="255.2,495.4 285.4,495.4 276.6,474.9 246.4,474.9 		"/>
		<rect x="222" y="474.9" class="st11" width="54.6" height="45.2"/>
		<rect x="222" y="474.9" class="st30" width="54.6" height="45.2"/>
		<rect x="193.1" y="474.9" class="st11" width="42.3" height="45.2"/>
		<rect x="193.1" y="474.9" class="st31" width="42.3" height="45.2"/>
		<polygon class="st12" points="193.1,497.5 228.1,497.5 235.4,474.9 193.1,474.9 		"/>
		<polygon class="st11" points="226.7,495.4 184.4,495.4 193.1,474.9 235.4,474.9 		"/>
	</g>
</g>
</svg>
